<?xml version="1.0" encoding="utf-8"?>
<!-- Generator: Adobe Illustrator 19.2.0, SVG Export Plug-In . SVG Version: 6.00 Build 0)  -->
<svg version="1.1" id="图层_1" xmlns="http://www.w3.org/2000/svg" xmlns:xlink="http://www.w3.org/1999/xlink" x="0px" y="0px"
	 viewBox="0 0 48 48" style="enable-background:new 0 0 48 48;" xml:space="preserve">
<style type="text/css">
	.st0{fill:#F1F2F2;}
	.st1{fill:#49AAEE;}
	.st2{fill:none;stroke:#474C54;stroke-width:2;stroke-linecap:round;stroke-linejoin:round;}
</style>
<title></title>
<g id="_11-Trello">
	<g id="_Group_">
		<path class="st0" d="M24,6h8c1.1,0,2,0.9,2,2v13c0,1.1-0.9,2-2,2h-8c-1.1,0-2-0.9-2-2V8C22,6.9,22.9,6,24,6z"/>
		<path class="st0" d="M8,6h8c1.1,0,2,0.9,2,2v26c0,1.1-0.9,2-2,2H8c-1.1,0-2-0.9-2-2V8C6,6.9,6.9,6,8,6z"/>
		<path class="st1" d="M47,7v34c0,3.3-2.7,6-6,6H7c-3.3,0-6-2.7-6-6V7c0-3.3,2.7-6,6-6h34C44.3,1,47,3.7,47,7z M34,21V8
			c0-1.1-0.9-2-2-2h-8c-1.1,0-2,0.9-2,2v13c0,1.1,0.9,2,2,2h8C33.1,23,34,22.1,34,21z M18,34V8c0-1.1-0.9-2-2-2H8C6.9,6,6,6.9,6,8
			v26c0,1.1,0.9,2,2,2h8C17.1,36,18,35.1,18,34z"/>
		<path class="st2" d="M7,1h34c3.3,0,6,2.7,6,6v34c0,3.3-2.7,6-6,6H7c-3.3,0-6-2.7-6-6V7C1,3.7,3.7,1,7,1z"/>
		<path class="st2" d="M8,6h8c1.1,0,2,0.9,2,2v26c0,1.1-0.9,2-2,2H8c-1.1,0-2-0.9-2-2V8C6,6.9,6.9,6,8,6z"/>
		<path class="st2" d="M24,6h8c1.1,0,2,0.9,2,2v13c0,1.1-0.9,2-2,2h-8c-1.1,0-2-0.9-2-2V8C22,6.9,22.9,6,24,6z"/>
	</g>
</g>
</svg>
