<?xml version="1.0" encoding="utf-8"?>
<!-- Generator: Adobe Illustrator 19.2.0, SVG Export Plug-In . SVG Version: 6.00 Build 0)  -->
<svg version="1.1" id="图层_1" xmlns="http://www.w3.org/2000/svg" xmlns:xlink="http://www.w3.org/1999/xlink" x="0px" y="0px"
	 viewBox="0 0 48 48" style="enable-background:new 0 0 48 48;" xml:space="preserve">
<style type="text/css">
	.st0{fill:#F1F2F2;}
	.st1{fill:#FC934E;}
	.st2{fill:none;stroke:#474C54;stroke-width:2;stroke-linecap:round;stroke-linejoin:round;}
</style>
<title></title>
<g id="_16-Reddit">
	<g id="_Group_">
		<circle class="st0" cx="42" cy="5" r="4"/>
		<path class="st0" d="M45.2,24.7c1.2,1.9,1.8,4.1,1.8,6.3c0,8.8-10.3,16-23,16S1,39.8,1,31c0-2.2,0.7-4.4,1.8-6.3
			c-2.6-2.8-2.4-7.3,0.4-9.9s7.3-2.4,9.9,0.4c0.4,0.4,0.7,0.8,0.9,1.3c3.2-1,6.5-1.6,9.9-1.6c1.4,0,2.7,0.1,4.1,0.3
			c2,0.2,3.9,0.7,5.9,1.3c1.9-3.4,6.2-4.6,9.5-2.7c3.4,1.9,4.6,6.2,2.7,9.5C45.8,23.9,45.5,24.3,45.2,24.7z M36,26c0-2.2-1.8-4-4-4
			s-4,1.8-4,4s1.8,4,4,4S36,28.2,36,26z M20,26c0-2.2-1.8-4-4-4s-4,1.8-4,4s1.8,4,4,4S20,28.2,20,26z"/>
		<circle class="st1" cx="32" cy="26" r="4"/>
		<circle class="st1" cx="16" cy="26" r="4"/>
		<circle class="st2" cx="42" cy="5" r="4"/>
		<path class="st2" d="M24,15c-3.4,0-6.7,0.5-9.9,1.6c-1.9-3.4-6.2-4.6-9.5-2.7S0,20.1,1.9,23.4c0.3,0.5,0.6,0.9,0.9,1.3
			C1.7,26.6,1,28.8,1,31c0,8.8,10.3,16,23,16s23-7.2,23-16c0-2.2-0.7-4.4-1.8-6.3c2.6-2.8,2.4-7.3-0.4-9.9s-7.3-2.4-9.9,0.4
			c-0.4,0.4-0.7,0.8-0.9,1.3c-1.9-0.6-3.9-1.1-5.9-1.3"/>
		<path class="st2" d="M24,15c0,0,1-10,14-10"/>
		<circle class="st2" cx="16" cy="26" r="4"/>
		<circle class="st2" cx="32" cy="26" r="4"/>
		<path class="st2" d="M16,35c0,0,1,5,8,5s8-5,8-5"/>
		<path class="st2" d="M5,20c0-1.7,1.3-3,3-3"/>
		<path class="st2" d="M40,17c1.7,0,3,1.3,3,3"/>
	</g>
</g>
</svg>
